# xmcd
#
# Track frame offsets:
#	150
#	12246
#	24616
#	37858
#	49319
#	62681
#	74463
#	86755
#	97833
#	111279
#	122152
#	134780
#	147929
#	160139
#	172232
#	184219
#	196496
#	208067
#	220529
#	233024
#	245199
#	258751
#	271300
#	284757
#	295799
#
# Disc length: 4117 seconds
#
# Revision: 1
# Processed by: cddbd v1.5.1PL2 Copyright (c) Steve Scherf et al.
# Submitted via: audiograbber 1.83.01
#
DISCID=85101319
DTITLE=Various Artist - Your Cheatin Heart Disc 1
DYEAR=1900
DGENRE=Country
TTITLE0=Hank Williams - You're Cheatin' Heart
TTITLE1=Jimmy Wakely - I Love you so much it hurts.
TTITLE2=Pee Wee King - Tennessee Waltz
TTITLE3=Eddy Arnold - Bouquet of Roses
TTITLE4=Davis Sisters - I Forget More Than You'll Ever Know
TTITLE5=Ernest Tubb - Walkin' The Floor Over You
TTITLE6=Lefty Frizzell - I Love you A Thousand Ways
TTITLE7=Carl Smith - Hey Joe!
TTITLE8=Stuart Hamblen - Remember Me, I'm The One Who Loves You
TTITLE9=The Carlisles - No Help Wanted
TTITLE10=Elton Britt - Someday (You'll Want Me To Want You)
TTITLE11=Hank Snow - I Don't Hurt Anymore
TTITLE12=Tex Ritter - You Two-Times Me One Time Too Often
TTITLE13=Spade Cooley - Detour
TTITLE14=Marty Robbins - I'll Go On Alone
TTITLE15=Skeets McDonald - Don't Let The Stars Get In Your Eyes
TTITLE16=Bob Wills - New San Antionio Rose
TTITLE17=Cindy Walker - When My Blue Moon Turns To Gold Again
TTITLE18=Jim Reeves - Bimbo
TTITLE19=Little Jimmy Dickens - A-Sleepin At The Foot Of The Bed
TTITLE20=Red Foley and Ernest Tubb - Goodnight Irene
TTITLE21=Al Dexter - Pistol Packin' Mama
TTITLE22=Merle Travis - Divorce Me C.O.D.
TTITLE23=Floyd Tillman - They Took The Stars Out Of Heaven
TTITLE24=Hank Williams - Hey Good Lookin'
EXTD=
EXTT0=
EXTT1=
EXTT2=
EXTT3=
EXTT4=
EXTT5=
EXTT6=
EXTT7=
EXTT8=
EXTT9=
EXTT10=
EXTT11=
EXTT12=
EXTT13=
EXTT14=
EXTT15=
EXTT16=
EXTT17=
EXTT18=
EXTT19=
EXTT20=
EXTT21=
EXTT22=
EXTT23=
EXTT24=
PLAYORDER=
